<svg width="13" height="19" viewBox="0 0 13 19" fill="none" xmlns="http://www.w3.org/2000/svg">
<g id="Group 2">
<path id="Vector" d="M0.577349 0.499874C0.394332 0.657298 0.249133 0.844287 0.150064 1.05014C0.0509944 1.25599 0 1.47666 0 1.69952C0 1.92238 0.0509944 2.14305 0.150064 2.3489C0.249133 2.55475 0.394332 2.74174 0.577349 2.89917L8.23731 9.50148L0.577349 16.1038C0.208214 16.422 0.000835946 16.8535 0.000835946 17.3034C0.000835946 17.7534 0.208214 18.1849 0.577349 18.5031C0.946483 18.8213 1.44714 19 1.96917 19C2.49121 19 2.99186 18.8213 3.36099 18.5031L12.4227 10.6926C12.6057 10.5352 12.7509 10.3482 12.8499 10.1424C12.949 9.9365 13 9.71583 13 9.49297C13 9.27011 12.949 9.04944 12.8499 8.84359C12.7509 8.63774 12.6057 8.45075 12.4227 8.29333L3.36099 0.482857C2.61079 -0.163761 1.34729 -0.163761 0.577349 0.499874Z" fill="black"/>
</g>
</svg>
